# xmcd CD database file
#
# Track frame offsets:
#	150
#	21414
#	39487
#	61475
#	72401
#	89431
#	109980
#	128084
#	136701
#	151869
#	170530
#	196936
#	214782
#	232455
#
# Disc length: 3280 seconds
#
# Revision: 0
# Processed by: cddbd v1.5.1PL0 Copyright (c) Steve Scherf et al.
# Submitted via: CDex 1.51
#
DISCID=cb0cce0e
DTITLE=Roy C - Hey Mista'
DYEAR=2005
DGENRE=Blues
TTITLE0=Hey Mista' Got Somethin' To Tell U
TTITLE1=Ain't Nobody Here
TTITLE2=I'm Still In Love With You
TTITLE3=In Divorce Court
TTITLE4=A Woman Needs A Whole Lot More
TTITLE5=Tonight You Don't Have To Be Lonely
TTITLE6=Living For The Weekend
TTITLE7=I'm Gonna Make It
TTITLE8=Neighborhood Scandal
TTITLE9=Out Of All The Things I Could Have Been
TTITLE10=Slow Roll It
TTITLE11=To Make You Feel Like A Woman
TTITLE12=Something Is Wrong With Us
TTITLE13=Those Days Are Gone
EXTD=YEAR: 2005
EXTT0=
EXTT1=
EXTT2=
EXTT3=
EXTT4=
EXTT5=
EXTT6=
EXTT7=
EXTT8=
EXTT9=
EXTT10=
EXTT11=
EXTT12=
EXTT13=
PLAYORDER=
